<svg xmlns="http://www.w3.org/2000/svg" height="48" viewBox="0 96 960 960" width="48"><path d="M334.087 771.217 480 625.304l145.913 145.913 49.304-49.304L529.304 576l145.913-145.913-49.304-49.304L480 526.696 334.087 380.783l-49.304 49.304L430.696 576 284.783 721.913l49.304 49.304ZM479.62 994.826q-85.825 0-162.506-32.784-76.681-32.785-133.526-89.63-56.845-56.845-89.63-133.579-32.784-76.734-32.784-162.755 0-86.915 32.843-163.351 32.844-76.435 89.887-133.582 57.043-57.147 133.457-89.842 76.414-32.694 162.071-32.694 87.02 0 163.827 32.651 76.808 32.651 133.695 89.736 56.887 57.085 89.662 133.707 32.775 76.623 32.775 163.839 0 86.179-32.694 162.349-32.695 76.17-89.842 133.209t-133.651 89.883q-76.503 32.843-163.584 32.843Z"/></svg>