<svg xmlns="http://www.w3.org/2000/svg" width="53.522" height="53.511" viewBox="0 0 53.522 53.511"><path d="M26.762,15.274a13.72,13.72,0,1,0,13.719,13.72A13.7,13.7,0,0,0,26.762,15.274Zm17.481-.561a3.2,3.2,0,1,1-3.2-3.2A3.193,3.193,0,0,1,44.242,14.713Zm9.087,3.248c-.2-4.287-1.182-8.084-4.322-11.212S42.081,2.641,37.795,2.426c-4.418-.251-17.66-.251-22.078,0-4.275.2-8.072,1.182-11.212,4.311S.4,13.662.183,17.948c-.251,4.418-.251,17.66,0,22.078.2,4.287,1.182,8.084,4.322,11.212s6.925,4.108,11.212,4.322c4.418.251,17.66.251,22.078,0,4.287-.2,8.084-1.182,11.212-4.322s4.107-6.925,4.322-11.212c.251-4.418.251-17.648,0-22.066Z" transform="translate(0.005 -2.238)"/><ellipse cx="11.887" cy="11.887" rx="11.887" ry="11.887" transform="translate(15.284 15.283)" fill="#fff"/></svg>