<svg xmlns="http://www.w3.org/2000/svg" width="53.481" height="45.882" viewBox="0 0 53.481 45.882"><path d="M55.367,10.471A6.8,6.8,0,0,0,50.52,4.943,13.85,13.85,0,0,0,39.284,6.949c-3.57,2.6-5.684,7.128-6.424,10.006a9.018,9.018,0,0,1,4.657-.824,3.044,3.044,0,0,1,2.973,3.021,8.317,8.317,0,0,1-.43,3.308,34.97,34.97,0,0,1-5.684,9.648,8.6,8.6,0,0,1-1.194,1.182c-1.218.991-2.245.728-3.033-.621a16.726,16.726,0,0,1-1.457-3.475c-1.481-4.74-2.006-9.66-2.842-14.52A17.757,17.757,0,0,0,23.7,7.88a5.757,5.757,0,0,0-5.97-2.627c-1.755.215-4.406,2.09-5.707,3.152,0,0-6.687,5.6-9.767,8.525l2.531,3.224s2.137-1.493,3.284-2.185a1.7,1.7,0,0,1,2.054.024,6.543,6.543,0,0,1,1.469,1.684,22.743,22.743,0,0,1,1.755,3.988c1.576,5.29,3.045,10.591,4.513,15.917a22.779,22.779,0,0,0,3.343,7.594c2.3,3.176,4.728,3.9,8.466,2.567A24.089,24.089,0,0,0,37.553,44.5,80.2,80.2,0,0,0,47.762,32.418,56.179,56.179,0,0,0,53.9,22.03,18.415,18.415,0,0,0,55.367,10.471Z" transform="translate(-2.257 -4.499)"/></svg>